<svg width="25" height="28" viewBox="0 0 25 28" fill="none" xmlns="http://www.w3.org/2000/svg">
<circle cx="12" cy="12" r="12" fill="#1F1F1F"/>
<g filter="url(#filter0_dd_120_587)">
<path d="M10.18 17.58C9.31333 17.58 8.55333 17.3667 7.9 16.94C7.26 16.5 6.68667 15.92 6.18 15.2C5.67333 14.4667 5.18667 13.66 4.72 12.78L5.48 12.34C5.82667 12.9667 6.18 13.5733 6.54 14.16C6.91333 14.7333 7.34 15.2067 7.82 15.58C8.3 15.94 8.88667 16.12 9.58 16.12C10.02 16.12 10.4333 16.0267 10.82 15.84C11.22 15.64 11.5467 15.3667 11.8 15.02C12.0533 14.6733 12.18 14.2667 12.18 13.8C12.18 13.3067 12.0133 12.9333 11.68 12.68C11.36 12.4267 10.98 12.3 10.54 12.3C10.1667 12.3 9.78 12.38 9.38 12.54C8.98 12.6867 8.62667 12.8333 8.32 12.98L7.46 11.52C7.82 11.32 8.21333 11.14 8.64 10.98C9.08 10.82 9.52667 10.74 9.98 10.74C10.0467 10.74 10.1067 10.74 10.16 10.74C10.52 10.5133 10.7933 10.2467 10.98 9.94C11.1667 9.62 11.26 9.3 11.26 8.98C11.26 8.63333 11.1533 8.34667 10.94 8.12C10.7267 7.89333 10.3867 7.78 9.92 7.78C9.54667 7.78 9.06667 7.87333 8.48 8.06C7.89333 8.23333 7.32667 8.49333 6.78 8.84L5.9 7.34C6.48667 6.99333 7.07333 6.74 7.66 6.58C8.26 6.42 8.77333 6.34 9.2 6.34C9.81333 6.34 10.3333 6.47333 10.76 6.74C11.1867 6.99333 11.5333 7.32 11.8 7.72C12.0667 8.12 12.26 8.53333 12.38 8.96C12.5133 9.37333 12.58 9.74 12.58 10.06C12.58 10.2733 12.5467 10.5 12.48 10.74C12.4133 10.98 12.2533 11.24 12 11.52C12.08 11.5867 12.1667 11.68 12.26 11.8C12.4867 12.0533 12.7467 12.28 13.04 12.48C13.3467 12.68 13.7933 12.78 14.38 12.78C15.1133 12.78 15.7333 12.56 16.24 12.12L16.28 8.1H14.14L13.46 6.8V6.6H19.62L20.3 7.9V8.1H17.96L18 19.2H17.8L16.2 18.16L16.22 14.14C16.1133 14.18 16 14.2067 15.88 14.22C15.76 14.2333 15.6333 14.24 15.5 14.24C15.1267 14.24 14.7533 14.1733 14.38 14.04C14.02 13.9067 13.7067 13.7533 13.44 13.58L13.36 13.62C13.44 13.8067 13.4933 14 13.52 14.2C13.56 14.3867 13.58 14.5667 13.58 14.74C13.58 15.2867 13.4267 15.7733 13.12 16.2C12.8267 16.6267 12.4267 16.9667 11.92 17.22C11.4133 17.46 10.8333 17.58 10.18 17.58Z" fill="#587262"/>
</g>
<defs>
<filter id="filter0_dd_120_587" x="0.719971" y="6.33997" width="23.58" height="20.86" filterUnits="userSpaceOnUse" color-interpolation-filters="sRGB">
<feFlood flood-opacity="0" result="BackgroundImageFix"/>
<feColorMatrix in="SourceAlpha" type="matrix" values="0 0 0 0 0 0 0 0 0 0 0 0 0 0 0 0 0 0 127 0" result="hardAlpha"/>
<feOffset dy="4"/>
<feGaussianBlur stdDeviation="2"/>
<feComposite in2="hardAlpha" operator="out"/>
<feColorMatrix type="matrix" values="0 0 0 0 0 0 0 0 0 0 0 0 0 0 0 0 0 0 0.25 0"/>
<feBlend mode="normal" in2="BackgroundImageFix" result="effect1_dropShadow_120_587"/>
<feColorMatrix in="SourceAlpha" type="matrix" values="0 0 0 0 0 0 0 0 0 0 0 0 0 0 0 0 0 0 127 0" result="hardAlpha"/>
<feOffset dy="4"/>
<feGaussianBlur stdDeviation="2"/>
<feComposite in2="hardAlpha" operator="out"/>
<feColorMatrix type="matrix" values="0 0 0 0 0 0 0 0 0 0 0 0 0 0 0 0 0 0 0.25 0"/>
<feBlend mode="normal" in2="effect1_dropShadow_120_587" result="effect2_dropShadow_120_587"/>
<feBlend mode="normal" in="SourceGraphic" in2="effect2_dropShadow_120_587" result="shape"/>
</filter>
</defs>
</svg>
